<svg id="72967562-57c6-4669-954f-d171b7d5ccf5" data-name="Layer 1" xmlns="http://www.w3.org/2000/svg" xmlns:xlink="http://www.w3.org/1999/xlink" viewBox="0 0 122.31 326.25"><defs><clipPath id="e642f720-bf42-49d7-8e56-515053a79c6e" transform="translate(-6.69 -7.51)"><path d="M89,221.71,75.41,322.14v0q0,.33-.12.66v0a5.79,5.79,0,0,1-.18.63.14.14,0,0,1,0,.06c-.07.2-.14.4-.22.59l0,.07a5.77,5.77,0,0,1-.27.56l0,.06-.3.49,0,.06c-.11.16-.23.32-.35.47l-.07.09c-.12.15-.25.29-.38.43l-.07.08-.43.4-.06.06c-.16.13-.31.25-.48.37l0,0a7.53,7.53,0,0,1-1.72.93l0,0-.58.19-.1,0-.56.13-.13,0-.57.08h-.13l-.55,0h-.15l-.38,0h-.13l-.39,0h-.08l-.31-.05h-.07l-.31-.07H66l-.3-.08-.08,0-.27-.09-.1,0-.23-.09-.13-.05-.19-.08-.16-.08-.15-.07-.19-.1-.12-.06-.21-.13-.09-.05-.23-.15-.07,0-.23-.17-.06-.05L63,327l-.06-.06-.21-.18-.08-.08-.18-.17-.1-.1-.15-.16-.12-.14L62,326a1.15,1.15,0,0,0-.14-.17.76.76,0,0,0-.08-.11l-.15-.21-.06-.08-.15-.24,0-.07-.15-.25,0-.06-.14-.26,0-.07a1.42,1.42,0,0,1-.12-.25.36.36,0,0,1,0-.09,2.44,2.44,0,0,1-.1-.24s0-.07,0-.11l-.08-.21a.88.88,0,0,0,0-.15c0-.06,0-.12,0-.18a1.05,1.05,0,0,1-.05-.19.83.83,0,0,1,0-.15,1.74,1.74,0,0,1,0-.22l0-.12c0-.09,0-.18,0-.27s0-.06,0-.09l0-.29a.22.22,0,0,1,0-.08l0-.31v-.08c0-.1,0-.2,0-.3V223L13,152c-.11-.16-.2-.32-.3-.49l-.06-.12a5.85,5.85,0,0,1-.28-.56,1.17,1.17,0,0,0-.05-.11c-.08-.2-.15-.4-.22-.6l0-.09c-.06-.22-.12-.43-.17-.64v-.07c0-.22-.08-.44-.11-.67v-.05c0-.23,0-.45-.05-.68v-.06c0-.22,0-.44,0-.66v-.08c0-.21,0-.43.08-.64,0,0,0-.06,0-.1,0-.2.08-.4.14-.6l0-.12c0-.19.12-.39.19-.58l.05-.12a5.62,5.62,0,0,1,.25-.56.54.54,0,0,1,0-.11l.31-.56a.22.22,0,0,0,.05-.08l.39-.55,0-.05c.15-.19.31-.36.47-.54l0,0c.17-.18.35-.34.53-.5l0,0,0,0a5.56,5.56,0,0,1,.54-.42l.1-.06.06,0,.48-.29.12-.07c.19-.1.37-.19.56-.27l.12-.05a4.31,4.31,0,0,1,.6-.22l.09,0c.21-.07.42-.12.63-.17l.08,0c.22,0,.44-.08.66-.1h.06c.22,0,.45,0,.67,0h.07a4.71,4.71,0,0,1,.65,0H20a4.52,4.52,0,0,1,.63.08h.1l.61.14.12,0c.19.06.38.12.57.2l.12,0,.57.25.1.05.56.32.08.05c.19.12.37.25.55.39l.05,0a6.06,6.06,0,0,1,.54.47l0,0a6.36,6.36,0,0,1,.5.53s0,0,0,0l62.09,73a7.62,7.62,0,0,1,1.76,6m35-27.6v.08c0,.21,0,.42-.09.64,0,0,0,.06,0,.09,0,.21-.09.41-.14.61l0,.12c-.06.19-.12.39-.2.58l0,.12c-.08.19-.16.38-.25.56a.54.54,0,0,0,0,.11c-.1.19-.21.37-.32.55a.56.56,0,0,1,0,.08c-.12.19-.25.38-.39.56l0,0c-.14.18-.3.36-.47.54l0,0a6.36,6.36,0,0,1-.53.5l0,0,0,0-.49.37-.1.08-.11.08-.24.14-.22.14c-.17.09-.33.18-.5.25l-.18.08-.44.19-.2.07c-.14,0-.27.09-.41.12l-.2.05-.42.1-.19,0a3.62,3.62,0,0,1-.46.06l-.15,0-.61,0h-.61l-.26,0-.17,0-.27,0-.16,0-.29-.06-.13,0-.31-.09-.11,0-.35-.12-.07,0a6.79,6.79,0,0,1-.83-.37l0,0-.36-.19-.12-.08-.24-.16a.91.91,0,0,1-.16-.11l-.2-.14-.17-.14-.16-.14-.19-.16-.14-.14-.18-.18-.14-.15-.16-.18,0,0-62.1-73a7.65,7.65,0,0,1-1.75-6L60.28,19.12v0c0-.09,0-.19.05-.29a.22.22,0,0,1,0-.08l.06-.3a.24.24,0,0,0,0-.08l.08-.29s0-.06,0-.09l.09-.25,0-.11.09-.22,0-.15c0-.06.05-.12.08-.17l.08-.18.07-.14c0-.07.07-.13.1-.2l.06-.11a2.39,2.39,0,0,1,.13-.21.41.41,0,0,1,0-.09l.15-.23.05-.07.16-.23.06-.07.16-.21.08-.09c0-.06.1-.13.16-.19l.1-.1.14-.16.14-.13.12-.12.18-.15.09-.08.22-.18.06,0,.26-.19,0,0,.3-.19h0a7.29,7.29,0,0,1,1-.51h0l.31-.12,0,0,.28-.1.08,0,.25-.08.12,0,.21,0,.16,0,.18,0,.21,0,.14,0,.24,0,.13,0,.26,0h1.13l.25,0h.12l.29,0,.09,0,.29.06.08,0,.29.08.09,0,.25.08.12,0,.21.08.15.06.17.08.18.08.13.06.21.11.1.05.23.14.07,0,.24.16.06,0,.24.17.06,0,.23.18.06.06.22.18.07.07.19.18.09.1c.05.05.11.1.16.16l.11.13.12.14c.05.05.09.11.14.17l.09.11.14.2.07.09.15.23,0,.08a2.07,2.07,0,0,1,.15.25l0,.06.14.26,0,.07.12.25a.36.36,0,0,0,0,.09l.09.24a1.17,1.17,0,0,1,0,.11c0,.07,0,.14.07.21a.88.88,0,0,1,.05.15l.06.18a1.21,1.21,0,0,0,0,.18.94.94,0,0,0,0,.16,1.74,1.74,0,0,0,0,.22s0,.08,0,.12,0,.18,0,.26,0,.07,0,.1a2.54,2.54,0,0,1,0,.29.22.22,0,0,0,0,.08c0,.1,0,.2,0,.3v.09c0,.1,0,.2,0,.3v98.17l47.25,71c.1.16.2.32.29.49l.07.11q.15.28.27.57a.54.54,0,0,1,0,.11c.09.2.16.4.23.6,0,0,0,.06,0,.09a5,5,0,0,1,.17.64l0,.07c0,.22.08.44.1.66v.06c0,.23,0,.45,0,.68v.06a4.85,4.85,0,0,1,0,.66" fill="none" clip-rule="evenodd"/></clipPath><clipPath id="13060d03-2943-4c18-bd29-2f4ea3deac5d" transform="translate(-6.69 -7.51)"><rect x="-64.62" y="-67.01" width="265" height="475" fill="none"/></clipPath></defs><title>bolt</title><g clip-path="url(#e642f720-bf42-49d7-8e56-515053a79c6e)"><g clip-path="url(#13060d03-2943-4c18-bd29-2f4ea3deac5d)"><rect width="122.31" height="326.25" fill="#54A0B3"/></g></g></svg>
